<svg version="1.1" xmlns="http://www.w3.org/2000/svg" xmlns:xlink="http://www.w3.org/1999/xlink" width="69.8291" height="69.7607">
    <g>
        <rect height="69.7607" opacity="0" width="69.8291" x="0" y="0"/>
        <path d="M69.7266 34.8633C69.7266 53.9014 53.9355 69.7266 34.8633 69.7266C15.8252 69.7266 0 53.9014 0 34.8633C0 15.791 15.791 0 34.8291 0C53.9014 0 69.7266 15.791 69.7266 34.8633ZM15.4834 18.2861C14.5264 18.2861 13.9111 19.0039 13.9111 19.9609L13.9111 49.7998C13.9111 50.791 14.5264 51.4746 15.4834 51.4746L54.2432 51.4746C55.2002 51.4746 55.8496 50.791 55.8496 49.7998L55.8496 19.9609C55.8496 19.0039 55.2002 18.2861 54.2432 18.2861ZM52.9785 21.5674L52.9785 48.1934C52.9785 48.501 52.9443 48.5352 52.6025 48.5352L17.124 48.5352C16.8164 48.5352 16.748 48.501 16.748 48.1934L16.748 21.5674C16.748 21.2939 16.8164 21.2598 17.124 21.2598L52.6025 21.2598C52.9443 21.2598 52.9785 21.2939 52.9785 21.5674ZM20.166 23.3447C19.3799 23.3447 18.8672 23.8574 18.8672 24.6094L18.8672 45.1514C18.8672 45.9375 19.3799 46.4502 20.166 46.4502L49.5605 46.4502C50.3809 46.4502 50.8594 45.9375 50.8594 45.1514L50.8594 24.6094C50.8594 23.8574 50.3809 23.3447 49.5605 23.3447ZM48.5693 25.7715L48.5693 41.084L41.46 34.4189C40.8447 33.8721 40.0586 33.5645 39.3066 33.5645C38.4521 33.5645 37.7344 33.8037 37.085 34.3506L31.1719 39.7168L28.8135 37.5977C28.2324 37.085 27.5146 36.7773 26.8311 36.7773C26.1475 36.7773 25.5322 37.085 24.9512 37.5635L21.1572 41.0498L21.1572 25.7715C21.1572 25.6006 21.1914 25.6006 21.2598 25.6006L48.4668 25.6006C48.6035 25.6006 48.5693 25.6006 48.5693 25.7715ZM25.498 31.582C25.498 33.4619 27.0361 35 28.9502 35C30.8643 35 32.4023 33.4619 32.4023 31.582C32.4023 29.668 30.8643 28.1299 28.9502 28.1299C27.0361 28.1299 25.498 29.668 25.498 31.582Z" fill="#BBBBBB" />
    </g>
</svg>
